<?xml version="1.0" encoding="utf-8"?>
<!-- Generator: Adobe Illustrator 23.0.6, SVG Export Plug-In . SVG Version: 6.00 Build 0)  -->
<svg version="1.1" id="Google_Research" xmlns="http://www.w3.org/2000/svg" xmlns:xlink="http://www.w3.org/1999/xlink" x="0px"
	 y="0px" width="3567.96px" height="512px" viewBox="0 0 3567.96 512" enable-background="new 0 0 3567.96 512"
	 xml:space="preserve">
<g>
	<g>
		<path fill="#5F6368" d="M1725,38.61h119.56c58.31,0,109.76,43.12,109.76,104.37c0,49.98-37.24,90.65-83.79,100.45l-0.98,1.47
			l98.49,142.59v1.96h-53.41l-94.57-142.1h-49.98v142.1H1725V38.61z M1842.6,205.21c34.79,0,65.66-25.48,65.66-62.23
			c0-27.93-22.54-61.25-62.72-61.25h-75.46v123.48H1842.6z"/>
		<path fill="#5F6368" d="M1973.28,269.4c0-69.58,45.57-127.89,118.58-127.89c71.54,0,116.62,50.47,116.62,127.89
			c0,3.43-0.49,8.33-0.49,8.33h-188.65c1.47,53.9,43.12,78.4,77.42,78.4c33.32,0,53.9-19.11,67.62-43.12l40.18,19.6
			c-18.62,35.28-55.86,64.68-109.76,64.68C2024.24,397.29,1973.28,343.39,1973.28,269.4z M2090.88,182.67
			c-34.79,0-60.76,23.52-68.11,57.82h137.69C2158.99,219.42,2143.8,182.67,2090.88,182.67z"/>
		<path fill="#5F6368" d="M2225.33,328.69l40.18-17.15c12.74,30.87,38.22,45.57,62.72,45.57c30.87,0,50.47-15.68,50.47-31.36
			c0-15.19-9.31-27.44-46.55-36.75l-35.28-8.82c-27.93-7.35-64.68-24.99-64.68-66.15c0-48.02,45.08-72.52,95.06-72.52
			c38.71,0,78.89,19.11,93.59,55.86l-40.18,16.66c-10.29-22.54-34.79-32.34-56.84-32.34c-19.6,0-45.57,10.78-45.57,30.38
			c0,15.19,11.27,23.03,38.71,29.4l36.26,9.31c49.49,11.76,71.54,38.71,71.54,72.03c0,40.18-38.71,74.48-96.53,74.48
			C2273.35,397.29,2238.56,363.48,2225.33,328.69z"/>
		<path fill="#5F6368" d="M2441.37,269.4c0-69.58,45.57-127.89,118.58-127.89c71.54,0,116.62,50.47,116.62,127.89
			c0,3.43-0.49,8.33-0.49,8.33h-188.65c1.47,53.9,43.12,78.4,77.42,78.4c33.32,0,53.9-19.11,67.62-43.12l40.18,19.6
			c-18.62,35.28-55.86,64.68-109.76,64.68C2492.33,397.29,2441.37,343.39,2441.37,269.4z M2558.97,182.67
			c-34.79,0-60.76,23.52-68.11,57.82h137.69C2627.08,219.42,2611.89,182.67,2558.97,182.67z"/>
		<path fill="#5F6368" d="M2906.72,241.47v147.98h-43.12v-33.32h-1.96c-13.23,20.09-37.24,41.16-74.48,41.16
			c-52.43,0-93.1-35.28-93.1-82.32c0-52.43,44.1-81.34,103.39-81.34c33.81,0,56.84,9.31,66.15,14.7v-10.29
			c0-33.32-31.36-56.35-62.23-56.35c-25.48,0-44.59,9.31-59.78,31.85l-39.69-24.99c21.07-29.89,53.9-47.04,97.02-47.04
			C2866.05,141.51,2906.72,179.73,2906.72,241.47z M2863.6,286.55c0,0-21.56-16.66-58.8-16.66c-38.22,0-64.19,21.07-64.19,46.06
			c0,25.97,26.95,41.16,49.98,41.16C2826.85,357.11,2863.6,325.75,2863.6,286.55z"/>
		<path fill="#5F6368" d="M2950.77,389.45v-240.1h43.12v39.2h1.96c9.8-27.44,45.08-46.06,70.07-46.06c14.7,0,24.5,1.96,33.32,5.88
			l-13.72,43.61c-6.86-2.45-15.19-3.43-26.46-3.43c-33.81,0-63.21,31.85-63.21,68.6v132.3H2950.77z"/>
		<path fill="#5F6368" d="M3096.34,269.4c0-73.01,51.45-127.89,123.48-127.89c57.33,0,90.65,33.81,105.35,69.09l-41.16,17.15
			c-11.76-28.42-33.81-45.08-67.13-45.08c-38.22,0-75.46,34.79-75.46,86.73s37.24,86.73,75.46,86.73
			c33.32,0,57.82-17.15,69.58-45.08l40.18,17.15c-14.7,35.28-49.49,69.09-106.82,69.09C3147.79,397.29,3096.34,341.92,3096.34,269.4
			z"/>
		<path fill="#5F6368" d="M3400.38,149.35l-1.96,33.32h1.96c12.74-22.05,43.12-41.16,75.95-41.16c64.19,0,91.63,40.67,91.63,97.02
			v150.92h-45.08V245.39c0-47.04-25.97-62.72-57.33-62.72c-39.2,0-65.17,39.2-65.17,75.95v130.83h-45.08V38.61h45.08V149.35z"/>
	</g>
	<g id="_x33_320x512px">
		<path fill="#4285F4" d="M202.4,235.58v-54.25h181.59c1.85,9.56,2.94,20.94,2.94,33.26c0,40.69-11.14,91.06-46.97,126.91
			c-34.87,36.33-79.42,55.7-138.5,55.7C92.01,397.2,0,308.07,0,198.6C0,89.13,92.01,0,201.45,0c60.53,0,103.63,23.74,136.08,54.74
			L299.27,93c-23.25-21.8-54.72-38.75-97.82-38.75c-79.9,0-142.37,64.42-142.37,144.35s62.47,144.35,142.37,144.35
			c51.82,0,81.36-20.83,100.24-39.72c15.39-15.39,25.52-37.47,29.46-67.65L202.4,235.58z"/>
		<path fill="#EA4335" d="M663.64,269.32c0,73.63-57.63,127.88-128.33,127.88c-70.7,0-128.33-54.25-128.33-127.88
			c0-74.11,57.63-127.88,128.33-127.88C606.02,141.44,663.64,195.21,663.64,269.32z M607.47,269.32c0-46.02-33.41-77.5-72.15-77.5
			c-38.74,0-72.16,31.48-72.16,77.5c0,45.53,33.41,77.5,72.16,77.5C574.06,346.82,607.47,314.85,607.47,269.32z"/>
		<path fill="#FBBC04" d="M943.59,269.32c0,73.63-57.63,127.88-128.33,127.88c-70.7,0-128.33-54.25-128.33-127.88
			c0-74.11,57.63-127.88,128.33-127.88C885.97,141.44,943.59,195.21,943.59,269.32z M887.42,269.32c0-46.02-33.41-77.5-72.15-77.5
			c-38.74,0-72.16,31.48-72.16,77.5c0,45.53,33.41,77.5,72.16,77.5C854.01,346.82,887.42,314.85,887.42,269.32z"/>
		<path fill="#4285F4" d="M1211.93,149.19v229.6c0,94.46-55.69,133.21-121.55,133.21c-61.99,0-99.27-41.66-113.32-75.56l48.91-20.35
			c8.72,20.83,30.02,45.53,64.41,45.53c42.13,0,68.28-26.16,68.28-75.08v-18.41h-1.94c-12.59,15.5-36.8,29.06-67.31,29.06
			c-63.93,0-122.52-55.7-122.52-127.39c0-72.18,58.59-128.36,122.52-128.36c30.51,0,54.72,13.56,67.31,28.58h1.94v-20.83H1211.93z
			 M1162.53,269.81c0-45.05-30.02-77.99-68.28-77.99c-38.74,0-71.19,32.94-71.19,77.99c0,44.56,32.44,77.02,71.19,77.02
			C1132.51,346.82,1162.53,314.37,1162.53,269.81z"/>
		<path fill="#34A853" d="M1307.07,14.82v374.63h-56.17V14.82H1307.07z"/>
		<path fill="#EA4335" d="M1524,311.46l43.58,29.06c-14.05,20.83-47.94,56.67-106.54,56.67c-72.64,0-126.88-56.19-126.88-127.88
			c0-76.05,54.72-127.88,120.58-127.88c66.35,0,98.79,52.8,109.44,81.38l5.81,14.53l-170.95,70.72
			c13.08,25.67,33.42,38.75,61.99,38.75C1489.61,346.82,1509.47,332.78,1524,311.46z M1389.85,265.45l114.28-47.47
			c-6.3-15.98-25.18-27.12-47.46-27.12C1428.11,190.85,1388.4,216.04,1389.85,265.45z"/>
	</g>
</g>
</svg>
